<svg xmlns="http://www.w3.org/2000/svg" width="113" height="65" viewBox="0 0 113 65" fill="none"><path d="M12.6259 17.2242V20.8093C12.6259 25.1349 10.4826 27.5899 6.31295 27.5899C2.14329 27.5899 0 25.1349 0 20.8093V6.78057C0 2.45503 2.14329 0 6.31295 0C10.4826 0 12.6259 2.45503 12.6259 6.78057V9.39148H8.61211V6.50779C8.61211 4.59832 7.75479 3.85791 6.42985 3.85791C5.06595 3.85791 4.2476 4.59832 4.2476 6.50779V21.0821C4.2476 22.9916 5.10491 23.693 6.42985 23.693C7.79376 23.693 8.61211 22.9916 8.61211 21.0821V17.2242H12.6259Z" fill="#F7F7F7"></path><path d="M28.9149 27.2782H24.6283L23.8879 22.3681H18.7051L17.9647 27.2782H14.0678L18.3933 0.311768H24.5894L28.9149 27.2782ZM19.2506 18.705H23.3424L21.277 5.06596L19.2506 18.705Z" fill="#F7F7F7"></path><path d="M39.8651 19.4455L42.7488 0.311768H48.6331V27.2782H44.6193V7.94966L41.6967 27.2782H37.6829L34.5264 8.22244V27.2782H30.8244V0.311768H36.7087L39.8651 19.4455Z" fill="#F7F7F7"></path><path d="M55.7644 0.311768V21.1211C55.7644 23.0306 56.6218 23.732 57.9467 23.732C59.3106 23.732 60.129 23.0306 60.129 21.1211V0.311768H64.1427V20.8483C64.1427 25.1739 61.9995 27.6289 57.8298 27.6289C53.6601 27.6289 51.5168 25.1739 51.5168 20.8483V0.311768H55.7644Z" fill="#F7F7F7"></path><path d="M70.8453 7.75481V27.2782H67.0264V0.311768H72.3261L76.6906 16.4449V0.311768H80.4706V27.2782H76.1061L70.8453 7.75481Z" fill="#F7F7F7"></path><path d="M83.5103 0.311768H90.2129C94.4605 0.311768 96.5259 2.6499 96.5259 6.97543V20.6145C96.5259 24.9401 94.4605 27.2782 90.2129 27.2782H83.5103V0.311768ZM87.7579 4.16968V23.4203H90.135C91.4989 23.4203 92.2783 22.7188 92.2783 20.8094V6.78059C92.2783 4.87112 91.4599 4.16968 90.135 4.16968H87.7579Z" fill="#F7F7F7"></path><path d="M112.893 27.2782H108.606L107.866 22.3681H102.683L101.942 27.2782H98.0456L102.371 0.311768H108.567L112.893 27.2782ZM103.228 18.705H107.32L105.294 5.06596L103.228 18.705Z" fill="#F7F7F7"></path><path d="M14.3405 53.2314V57.2842C14.3405 62.1943 11.8855 65 7.17026 65C2.45503 65 0 62.1943 0 57.2842V41.346C0 36.4359 2.45503 33.6301 7.17026 33.6301C11.8855 33.6301 14.3405 36.4359 14.3405 41.346V44.3076H9.82014V41.0342C9.82014 38.8519 8.84592 37.9946 7.32614 37.9946C5.80635 37.9946 4.83213 38.813 4.83213 41.0342V57.5959C4.83213 59.7782 5.80635 60.5576 7.32614 60.5576C8.84592 60.5576 9.82014 59.7782 9.82014 57.5959V53.2314H14.3405Z" fill="#F7F7F7"></path><path d="M16.9124 41.346C16.9124 36.4359 19.4844 33.6301 24.2386 33.6301C28.9538 33.6301 31.5647 36.4359 31.5647 41.346V57.2842C31.5647 62.1943 28.9928 65 24.2386 65C19.5234 65 16.9124 62.1943 16.9124 57.2842V41.346ZM21.7056 57.5959C21.7056 59.7782 22.6798 60.6355 24.1996 60.6355C25.7194 60.6355 26.6936 59.8172 26.6936 57.5959V41.0342C26.6936 38.8519 25.7194 37.9946 24.1996 37.9946C22.6798 37.9946 21.7056 38.813 21.7056 41.0342V57.5959Z" fill="#F7F7F7"></path><path d="M38.93 42.4369V64.6492H34.6044V33.9807H40.6446L45.5936 52.335V33.9807H49.8802V64.6492H44.9312L38.93 42.4369Z" fill="#F7F7F7"></path><path d="M103.774 52.6468V45.4766L100.734 52.6468H103.774Z" fill="#F7F7F7"></path><path d="M80.2758 42.2422C79.3015 42.2422 78.717 42.7488 78.717 44.1127V54.4394C78.717 55.8033 79.3015 56.3099 80.2758 56.3099C81.25 56.3099 81.8345 55.8033 81.8345 54.4394V44.1127C81.8345 42.7877 81.211 42.2422 80.2758 42.2422Z" fill="#F7F7F7"></path><path d="M58.8429 33.9028V64.6882H113.01V33.9028H58.8429ZM67.6109 56.1151H73.3004V58.8429H64.6103V56.5047C64.6103 50.8932 70.5725 49.958 70.5725 44.4634C70.5725 42.7488 69.988 42.2811 69.0138 42.2811C68.0785 42.2811 67.455 42.7877 67.455 44.1516V46.178H64.6103V44.3075C64.6103 41.2679 66.1301 39.5143 69.0917 39.5143C72.0534 39.5143 73.5731 41.2679 73.5731 44.3075C73.5731 50.3087 67.6109 52.5299 67.6109 55.6864C67.5719 55.8423 67.5719 55.9592 67.6109 56.1151ZM84.8351 54.2446C84.8351 57.2841 83.2374 59.0377 80.2758 59.0377C77.3141 59.0377 75.7164 57.2841 75.7164 54.2446V44.3075C75.7164 41.2679 77.3141 39.5143 80.2758 39.5143C83.2374 39.5143 84.8351 41.2679 84.8351 44.3075V54.2446ZM90.3297 56.1151H96.0192V58.8429H87.3291V56.5047C87.3291 50.8932 93.2914 49.958 93.2914 44.4634C93.2914 42.7488 92.7068 42.2811 91.7326 42.2811C90.7584 42.2811 90.1739 42.7877 90.1739 44.1516V46.178H87.3291V44.3075C87.3291 41.2679 88.8489 39.5143 91.8105 39.5143C94.7722 39.5143 96.292 41.2679 96.292 44.3075C96.292 50.3087 90.3297 52.5299 90.3297 55.6864C90.2908 55.8423 90.2908 55.9592 90.3297 56.1151ZM108.138 55.3747H106.736V58.8429H103.774V55.3747H98.0066V52.6468L103.462 39.7482H106.736V52.6468H108.138V55.3747Z" fill="#F7F7F7"></path></svg>